<mxfile host="app.diagrams.net" modified="2023-12-08T16:33:33.218Z" agent="Mozilla/5.0 (Windows NT 10.0; Win64; x64) AppleWebKit/537.36 (KHTML, like Gecko) Chrome/120.0.0.0 Safari/537.36" etag="LYGiZr6p9kYOqid-lsw3" version="22.1.7" type="github">
  <diagram name="Page-1" id="h_cg14KGIqQLTc9T9PP3">
    <mxGraphModel dx="1024" dy="533" grid="1" gridSize="10" guides="1" tooltips="1" connect="1" arrows="1" fold="1" page="1" pageScale="1" pageWidth="850" pageHeight="1100" math="0" shadow="0">
      <root>
        <mxCell id="0" />
        <mxCell id="1" parent="0" />
        <mxCell id="PNS4r1DHXMeKN16SPVCW-1" value="" style="whiteSpace=wrap;html=1;aspect=fixed;" vertex="1" parent="1">
          <mxGeometry x="45" y="170" width="760" height="760" as="geometry" />
        </mxCell>
        <mxCell id="PNS4r1DHXMeKN16SPVCW-2" value="&lt;font style=&quot;font-size: 14px;&quot;&gt;App&lt;/font&gt;" style="text;html=1;strokeColor=none;fillColor=none;align=center;verticalAlign=middle;whiteSpace=wrap;rounded=0;" vertex="1" parent="1">
          <mxGeometry x="395" y="190" width="60" height="30" as="geometry" />
        </mxCell>
        <mxCell id="PNS4r1DHXMeKN16SPVCW-3" value="&lt;font style=&quot;font-size: 14px;&quot;&gt;Header&lt;/font&gt;" style="rounded=0;whiteSpace=wrap;html=1;" vertex="1" parent="1">
          <mxGeometry x="60" y="220" width="730" height="60" as="geometry" />
        </mxCell>
        <mxCell id="PNS4r1DHXMeKN16SPVCW-4" value="" style="rounded=0;whiteSpace=wrap;html=1;" vertex="1" parent="1">
          <mxGeometry x="60" y="320" width="730" height="590" as="geometry" />
        </mxCell>
        <mxCell id="PNS4r1DHXMeKN16SPVCW-5" value="&lt;font style=&quot;font-size: 14px;&quot;&gt;BeanMachine&lt;/font&gt;" style="text;html=1;strokeColor=none;fillColor=none;align=center;verticalAlign=middle;whiteSpace=wrap;rounded=0;" vertex="1" parent="1">
          <mxGeometry x="395" y="330" width="60" height="30" as="geometry" />
        </mxCell>
        <mxCell id="PNS4r1DHXMeKN16SPVCW-6" value="" style="rounded=0;whiteSpace=wrap;html=1;" vertex="1" parent="1">
          <mxGeometry x="80" y="400" width="200" height="490" as="geometry" />
        </mxCell>
        <mxCell id="PNS4r1DHXMeKN16SPVCW-7" value="" style="rounded=0;whiteSpace=wrap;html=1;" vertex="1" parent="1">
          <mxGeometry x="325" y="400" width="200" height="490" as="geometry" />
        </mxCell>
        <mxCell id="PNS4r1DHXMeKN16SPVCW-8" value="" style="rounded=0;whiteSpace=wrap;html=1;" vertex="1" parent="1">
          <mxGeometry x="570" y="400" width="200" height="490" as="geometry" />
        </mxCell>
        <mxCell id="PNS4r1DHXMeKN16SPVCW-10" value="Text" style="text;html=1;strokeColor=none;fillColor=none;align=center;verticalAlign=middle;whiteSpace=wrap;rounded=0;" vertex="1" parent="1">
          <mxGeometry x="150" y="400" width="60" height="30" as="geometry" />
        </mxCell>
        <mxCell id="PNS4r1DHXMeKN16SPVCW-11" value="This component controls display of content and holds shared state needed for each component." style="text;html=1;strokeColor=none;fillColor=none;align=center;verticalAlign=middle;whiteSpace=wrap;rounded=0;" vertex="1" parent="1">
          <mxGeometry x="80" y="360" width="690" height="30" as="geometry" />
        </mxCell>
      </root>
    </mxGraphModel>
  </diagram>
</mxfile>
